<svg width="146" height="105" viewBox="0 0 146 105" fill="none" xmlns="http://www.w3.org/2000/svg">
<path d="M45.0424 95.2485L44.007 62.188H30.0283L29.5105 94.7624L28.9928 96.2209L28.4751 97.1933L27.4396 98.1657L23.8155 99.6242L14.6928 101.083L14.4963 102.541L14.6928 104H59.5389L60.0566 103.514V102.541V101.569L59.5389 101.083L50.7375 99.6242L46.5956 97.6795L45.5602 96.7071L45.0424 95.2485Z" fill="white" stroke="white"/>
<path d="M110.277 95.2485L109.241 62.188H95.2624L94.7447 94.7624L94.2269 96.2209L93.7092 97.1933L92.6737 98.1657L89.0496 99.6242L79.9269 101.083L79.7305 102.541L79.9269 104H124.773L125.291 103.514V102.541V101.569L124.773 101.083L115.972 99.6242L111.83 97.6795L110.794 96.7071L110.277 95.2485Z" fill="white" stroke="white"/>
<path d="M0.609375 45.2881C1.77604 45.3298 2.68229 45.3506 3.32812 45.3506C3.97396 45.3506 4.88021 45.3298 6.04688 45.2881C6.06771 45.3714 6.07812 45.4287 6.07812 45.46C6.07812 45.4964 6.06771 45.5615 6.04688 45.6553C5.80729 45.6761 5.61198 45.6995 5.46094 45.7256C5.3151 45.7464 5.13281 45.7829 4.91406 45.835C4.70052 45.887 4.53646 45.9626 4.42188 46.0615C4.30729 46.1553 4.2474 46.2699 4.24219 46.4053C4.17448 47.9626 4.14062 49.4131 4.14062 50.7568C4.71875 50.7777 5.59375 50.7881 6.76562 50.7881C7.72396 50.7881 8.6849 50.7725 9.64844 50.7412C9.6276 48.8037 9.60156 47.3584 9.57031 46.4053C9.5651 46.2699 9.50521 46.1553 9.39062 46.0615C9.27604 45.9626 9.10938 45.887 8.89062 45.835C8.67188 45.7829 8.48698 45.7464 8.33594 45.7256C8.1901 45.6995 7.9974 45.6761 7.75781 45.6553C7.73698 45.5615 7.72656 45.4964 7.72656 45.46C7.72656 45.4287 7.73698 45.3714 7.75781 45.2881C8.9349 45.3298 9.84115 45.3506 10.4766 45.3506C11.1172 45.3506 12.026 45.3298 13.2031 45.2881C13.224 45.3714 13.2344 45.4287 13.2344 45.46C13.2344 45.4964 13.224 45.5615 13.2031 45.6553C12.9635 45.6761 12.7682 45.6995 12.6172 45.7256C12.4714 45.7464 12.2891 45.7829 12.0703 45.835C11.8516 45.887 11.6849 45.9626 11.5703 46.0615C11.4557 46.1553 11.3958 46.2699 11.3906 46.4053C11.3385 47.7021 11.3125 49.2542 11.3125 51.0615C11.3125 52.8584 11.3385 54.4053 11.3906 55.7021C11.3958 55.8376 11.4557 55.9548 11.5703 56.0537C11.6849 56.1475 11.8516 56.2204 12.0703 56.2725C12.2891 56.3245 12.4714 56.3636 12.6172 56.3896C12.7682 56.4105 12.9635 56.4313 13.2031 56.4521C13.224 56.5355 13.2344 56.6058 13.2344 56.6631C13.2344 56.7048 13.224 56.7568 13.2031 56.8193C12.3177 56.7881 11.4089 56.7725 10.4766 56.7725C9.54427 56.7725 8.63802 56.7881 7.75781 56.8193C7.73698 56.7568 7.72656 56.7048 7.72656 56.6631C7.72656 56.5745 7.73698 56.5042 7.75781 56.4521C7.9974 56.4313 8.19271 56.4105 8.34375 56.3896C8.49479 56.3636 8.67969 56.3245 8.89844 56.2725C9.11719 56.2204 9.28385 56.1475 9.39844 56.0537C9.51302 55.9548 9.57031 55.8376 9.57031 55.7021C9.61198 53.8428 9.63802 52.4339 9.64844 51.4756C8.6849 51.4443 7.72396 51.4287 6.76562 51.4287C6.17188 51.4287 5.29688 51.4391 4.14062 51.46C4.14062 52.5693 4.16927 53.9834 4.22656 55.7021C4.23177 55.8376 4.29167 55.9548 4.40625 56.0537C4.52083 56.1475 4.6849 56.2204 4.89844 56.2725C5.11719 56.3245 5.29948 56.3636 5.44531 56.3896C5.59635 56.4105 5.79167 56.4313 6.03125 56.4521C6.05208 56.5563 6.0625 56.6266 6.0625 56.6631C6.0625 56.7048 6.05208 56.7568 6.03125 56.8193C5.14583 56.7881 4.23958 56.7725 3.3125 56.7725C2.375 56.7725 1.46875 56.7881 0.59375 56.8193C0.572917 56.7568 0.5625 56.7048 0.5625 56.6631C0.5625 56.5745 0.572917 56.5042 0.59375 56.4521C0.833333 56.4313 1.02604 56.4105 1.17188 56.3896C1.32292 56.3636 1.50521 56.3245 1.71875 56.2725C1.9375 56.2204 2.10417 56.1475 2.21875 56.0537C2.33333 55.9548 2.39323 55.8376 2.39844 55.7021C2.46094 54.0719 2.49219 52.4287 2.49219 50.7725C2.49219 49.085 2.46615 47.6292 2.41406 46.4053C2.40885 46.2699 2.34896 46.1553 2.23438 46.0615C2.11979 45.9626 1.95312 45.887 1.73438 45.835C1.52083 45.7829 1.33854 45.7464 1.1875 45.7256C1.04167 45.6995 0.848958 45.6761 0.609375 45.6553C0.588542 45.5615 0.578125 45.4964 0.578125 45.46C0.578125 45.4079 0.588542 45.3506 0.609375 45.2881ZM13.8281 45.2881C15.0052 45.3298 15.9505 45.3506 16.6641 45.3506C17.638 45.3506 18.5182 45.3298 19.3047 45.2881C19.3255 45.3714 19.3359 45.4287 19.3359 45.46C19.3359 45.5173 19.3255 45.5824 19.3047 45.6553C18.6953 45.6813 18.2474 45.736 17.9609 45.8193C17.6797 45.9027 17.5391 46.0381 17.5391 46.2256C17.5391 46.2933 17.5833 46.4105 17.6719 46.5771L20.0703 50.8818H20.1328L22.7578 46.5146C22.8203 46.4105 22.8516 46.3037 22.8516 46.1943C22.8516 46.0329 22.7474 45.9157 22.5391 45.8428C22.3359 45.7646 22.0286 45.7021 21.6172 45.6553C21.5964 45.5407 21.5859 45.4704 21.5859 45.4443C21.5859 45.4027 21.5964 45.3506 21.6172 45.2881C22.2891 45.3193 22.8984 45.335 23.4453 45.335C24.0339 45.335 24.625 45.3193 25.2188 45.2881C25.2396 45.3506 25.25 45.4027 25.25 45.4443C25.25 45.5277 25.2396 45.598 25.2188 45.6553C24.8385 45.6917 24.5182 45.7699 24.2578 45.8896C23.9974 46.0094 23.7734 46.2178 23.5859 46.5146L20.3438 51.749C20.3438 52.874 20.3698 54.1917 20.4219 55.7021C20.4271 55.8376 20.487 55.9548 20.6016 56.0537C20.7161 56.1475 20.8802 56.2204 21.0938 56.2725C21.3125 56.3245 21.4948 56.3636 21.6406 56.3896C21.7917 56.4105 21.987 56.4313 22.2266 56.4521C22.2474 56.5146 22.2578 56.585 22.2578 56.6631C22.2578 56.7048 22.2474 56.7568 22.2266 56.8193C21.3516 56.7881 20.4453 56.7725 19.5078 56.7725C18.5755 56.7725 17.6693 56.7881 16.7891 56.8193C16.7682 56.7568 16.7578 56.7048 16.7578 56.6631C16.7578 56.5745 16.7682 56.5042 16.7891 56.4521C17.0286 56.4313 17.2214 56.4105 17.3672 56.3896C17.5182 56.3636 17.7005 56.3245 17.9141 56.2725C18.1328 56.2204 18.2995 56.1475 18.4141 56.0537C18.5286 55.9548 18.5885 55.8376 18.5938 55.7021C18.6458 54.3949 18.6797 53.0771 18.6953 51.749L15.6406 46.4053C15.4375 46.1501 15.1875 45.9704 14.8906 45.8662C14.5938 45.762 14.2396 45.6917 13.8281 45.6553C13.8073 45.5615 13.7969 45.4964 13.7969 45.46C13.7969 45.4079 13.8073 45.3506 13.8281 45.2881ZM27.7109 51.4756C27.7109 51.1006 27.6849 49.3844 27.6328 46.3271C27.6172 46.2074 27.5547 46.1058 27.4453 46.0225C27.3411 45.9339 27.1875 45.8662 26.9844 45.8193C26.7812 45.7725 26.6146 45.7386 26.4844 45.7178C26.3594 45.6969 26.1823 45.6761 25.9531 45.6553C25.9323 45.5615 25.9219 45.4964 25.9219 45.46C25.9219 45.4287 25.9323 45.3714 25.9531 45.2881C26.0885 45.2933 26.4115 45.3063 26.9219 45.3271C27.4323 45.3428 27.8255 45.3506 28.1016 45.3506C28.3359 45.3506 28.7786 45.3402 29.4297 45.3193C30.0807 45.2985 30.5495 45.2881 30.8359 45.2881C32.1693 45.2881 33.1875 45.598 33.8906 46.2178C34.5938 46.8376 34.9453 47.6631 34.9453 48.6943C34.9453 49.6735 34.6302 50.473 34 51.0928C33.3698 51.7126 32.474 52.0225 31.3125 52.0225C30.6146 52.0225 29.987 51.8766 29.4297 51.585C29.4297 52.8558 29.4453 54.2282 29.4766 55.7021C29.4818 55.8376 29.5417 55.9548 29.6562 56.0537C29.7708 56.1475 29.9349 56.2204 30.1484 56.2725C30.3672 56.3245 30.5495 56.3636 30.6953 56.3896C30.8464 56.4105 31.0417 56.4313 31.2812 56.4521C31.3021 56.5563 31.3125 56.6266 31.3125 56.6631C31.3125 56.7048 31.3021 56.7568 31.2812 56.8193C30.3958 56.7881 29.4896 56.7725 28.5625 56.7725C27.625 56.7725 26.7188 56.7881 25.8438 56.8193C25.8229 56.7568 25.8125 56.7048 25.8125 56.6631C25.8125 56.5745 25.8229 56.5042 25.8438 56.4521C26.0833 56.4313 26.276 56.4105 26.4219 56.3896C26.5729 56.3636 26.7552 56.3245 26.9688 56.2725C27.1875 56.2204 27.3542 56.1475 27.4688 56.0537C27.5833 55.9548 27.6432 55.8376 27.6484 55.7021C27.6901 54.3636 27.7109 52.9548 27.7109 51.4756ZM29.4766 45.8271C29.4453 47.7021 29.4297 49.4469 29.4297 51.0615C29.8568 51.2542 30.2812 51.3506 30.7031 51.3506C31.4375 51.3506 31.9896 51.1136 32.3594 50.6396C32.7292 50.1657 32.9141 49.512 32.9141 48.6787C32.9141 46.7568 31.9635 45.7959 30.0625 45.7959C29.9427 45.7959 29.7474 45.8063 29.4766 45.8271ZM36.125 45.2881C37.2917 45.3298 38.2031 45.3506 38.8594 45.3506C43.3281 45.3245 45.8021 45.3037 46.2812 45.2881C46.349 45.8089 46.4818 46.3037 46.6797 46.7725C46.8776 47.236 47.1302 47.7308 47.4375 48.2568C47.3958 48.3454 47.3047 48.4157 47.1641 48.4678C46.9766 48.1136 46.75 47.7985 46.4844 47.5225C46.2188 47.2464 45.8828 46.986 45.4766 46.7412C45.0755 46.4964 44.5729 46.2959 43.9688 46.1396C43.3698 45.9834 42.6849 45.8792 41.9141 45.8271H39.7578C39.6901 48.0303 39.6562 49.6891 39.6562 50.8037H41.8828C42.0339 50.8037 42.1745 50.7933 42.3047 50.7725C42.4401 50.7464 42.5651 50.7048 42.6797 50.6475C42.7943 50.585 42.8958 50.5277 42.9844 50.4756C43.0781 50.4183 43.1719 50.335 43.2656 50.2256C43.3594 50.111 43.4375 50.0173 43.5 49.9443C43.5625 49.8662 43.638 49.749 43.7266 49.5928C43.8151 49.4365 43.8828 49.3141 43.9297 49.2256C43.9766 49.137 44.0469 48.999 44.1406 48.8115C44.2396 48.624 44.3151 48.4834 44.3672 48.3896C44.5286 48.4521 44.6276 48.5199 44.6641 48.5928C44.4453 48.9782 44.2604 49.4053 44.1094 49.874C43.9583 50.3428 43.8828 50.7334 43.8828 51.0459C43.8828 51.7855 44.1432 52.6006 44.6641 53.4912C44.6224 53.5745 44.5234 53.6449 44.3672 53.7021C44.3099 53.598 44.2292 53.4495 44.125 53.2568C44.026 53.0589 43.9479 52.9079 43.8906 52.8037C43.8333 52.6995 43.7552 52.5667 43.6562 52.4053C43.5573 52.2438 43.4688 52.1188 43.3906 52.0303C43.3177 51.9417 43.2214 51.8428 43.1016 51.7334C42.987 51.624 42.8724 51.5433 42.7578 51.4912C42.6432 51.4339 42.5104 51.387 42.3594 51.3506C42.2135 51.3089 42.0547 51.2881 41.8828 51.2881H39.6562C39.6562 52.1162 39.6849 53.7855 39.7422 56.2959H42.2344C43.0052 56.2438 43.6901 56.1396 44.2891 55.9834C44.8932 55.8271 45.3958 55.6266 45.7969 55.3818C46.2031 55.137 46.5391 54.8766 46.8047 54.6006C47.0703 54.3245 47.2969 54.0094 47.4844 53.6553C47.625 53.7074 47.7161 53.7751 47.7578 53.8584C47.7318 53.9105 47.6641 54.0355 47.5547 54.2334C47.4453 54.4313 47.3724 54.5667 47.3359 54.6396C47.2995 54.7074 47.237 54.8298 47.1484 55.0068C47.0651 55.1787 47.0026 55.3193 46.9609 55.4287C46.9193 55.5329 46.8698 55.6657 46.8125 55.8271C46.7604 55.9886 46.7161 56.1475 46.6797 56.3037C46.6484 56.4548 46.6224 56.611 46.6016 56.7725H39.7422C38.3307 56.7725 37.1198 56.7881 36.1094 56.8193C36.0885 56.7568 36.0781 56.7048 36.0781 56.6631C36.0781 56.6266 36.0885 56.5563 36.1094 56.4521C36.349 56.4313 36.5417 56.4105 36.6875 56.3896C36.8385 56.3636 37.0208 56.3245 37.2344 56.2725C37.4531 56.2204 37.6198 56.1475 37.7344 56.0537C37.849 55.9548 37.9089 55.8376 37.9141 55.7021C37.9766 54.0719 38.0078 52.4287 38.0078 50.7725C38.0078 49.085 37.9818 47.6292 37.9297 46.4053C37.9245 46.2699 37.8646 46.1553 37.75 46.0615C37.6354 45.9626 37.4688 45.887 37.25 45.835C37.0365 45.7829 36.8542 45.7464 36.7031 45.7256C36.5573 45.6995 36.3646 45.6761 36.125 45.6553C36.1042 45.5615 36.0938 45.4964 36.0938 45.46C36.0938 45.4287 36.1042 45.3714 36.125 45.2881ZM48.6875 45.2881C49.8125 45.3298 50.7188 45.3506 51.4062 45.3506C51.6667 45.3506 52.0859 45.3402 52.6641 45.3193C53.2422 45.2985 53.6875 45.2881 54 45.2881C55.1562 45.2881 56.0651 45.5798 56.7266 46.1631C57.3932 46.7464 57.7266 47.5042 57.7266 48.4365C57.7266 49.1865 57.5052 49.8584 57.0625 50.4521C56.6198 51.0407 56.0156 51.4626 55.25 51.7178C55.599 52.3428 56.0781 53.0511 56.6875 53.8428C57.276 54.6292 57.8359 55.2464 58.3672 55.6943C58.9036 56.1423 59.4792 56.3949 60.0938 56.4521C60.1146 56.5355 60.125 56.6006 60.125 56.6475C60.125 56.6995 60.1146 56.7568 60.0938 56.8193C59.7812 56.8037 59.4479 56.7933 59.0938 56.7881C58.7396 56.7829 58.3438 56.7803 57.9062 56.7803C57.474 56.7803 57.1406 56.7777 56.9062 56.7725C55.5052 55.1423 54.3802 53.5381 53.5312 51.96C53.151 51.96 52.7135 51.9001 52.2188 51.7803C52.2188 52.7907 52.2474 54.098 52.3047 55.7021C52.3099 55.8376 52.3698 55.9548 52.4844 56.0537C52.599 56.1475 52.763 56.2204 52.9766 56.2725C53.1953 56.3245 53.3776 56.3636 53.5234 56.3896C53.6745 56.4105 53.8698 56.4313 54.1094 56.4521C54.1302 56.5563 54.1406 56.6266 54.1406 56.6631C54.1406 56.7048 54.1302 56.7568 54.1094 56.8193C53.224 56.7881 52.3177 56.7725 51.3906 56.7725C50.4531 56.7725 49.5469 56.7881 48.6719 56.8193C48.651 56.7568 48.6406 56.7048 48.6406 56.6631C48.6406 56.5745 48.651 56.5042 48.6719 56.4521C48.8281 56.4365 48.9531 56.4235 49.0469 56.4131C49.1406 56.4027 49.2682 56.3844 49.4297 56.3584C49.5964 56.3324 49.7292 56.3037 49.8281 56.2725C49.9323 56.236 50.0391 56.1917 50.1484 56.1396C50.2578 56.0876 50.3385 56.0251 50.3906 55.9521C50.4479 55.8792 50.4766 55.7959 50.4766 55.7021C50.5391 54.0719 50.5703 52.4287 50.5703 50.7725C50.5703 49.085 50.5443 47.6292 50.4922 46.4053C50.487 46.2699 50.4271 46.1553 50.3125 46.0615C50.1979 45.9626 50.0312 45.887 49.8125 45.835C49.599 45.7829 49.4167 45.7464 49.2656 45.7256C49.1198 45.6995 48.9271 45.6761 48.6875 45.6553C48.6667 45.5615 48.6562 45.4964 48.6562 45.46C48.6562 45.4287 48.6667 45.3714 48.6875 45.2881ZM52.3203 45.8271H52.3047C52.2474 47.749 52.2188 49.5355 52.2188 51.1865C52.5833 51.3063 52.9531 51.3662 53.3281 51.3662C53.6719 51.3662 53.9792 51.3089 54.25 51.1943C54.526 51.0745 54.7526 50.9183 54.9297 50.7256C55.1068 50.5329 55.2526 50.3063 55.3672 50.0459C55.487 49.7855 55.5703 49.5225 55.6172 49.2568C55.6693 48.9912 55.6953 48.7178 55.6953 48.4365C55.6953 47.6605 55.4818 47.0277 55.0547 46.5381C54.6328 46.0433 54.0312 45.7959 53.25 45.7959C52.8646 45.7959 52.5547 45.8063 52.3203 45.8271ZM65.5938 45.2881C66.1615 45.3089 66.8698 45.3245 67.7188 45.335C68.5677 45.3454 69.5651 45.3506 70.7109 45.3506C71.8568 45.3506 72.8542 45.3454 73.7031 45.335C74.5573 45.3245 75.2708 45.3089 75.8438 45.2881C75.875 45.512 75.9141 45.7282 75.9609 45.9365C76.0078 46.1396 76.0859 46.3662 76.1953 46.6162L76.4297 47.1475L77 48.2568C76.9635 48.3402 76.8724 48.4105 76.7266 48.4678C76.5495 48.1396 76.3333 47.8271 76.0781 47.5303C75.8229 47.2334 75.4974 46.9652 75.1016 46.7256C74.7109 46.486 74.2318 46.2855 73.6641 46.124C73.1016 45.9626 72.4219 45.8532 71.625 45.7959C71.599 46.4469 71.5781 47.1839 71.5625 48.0068C71.5521 48.8245 71.5469 49.736 71.5469 50.7412C71.5469 51.7516 71.5521 52.6683 71.5625 53.4912C71.5781 54.3141 71.599 55.0511 71.625 55.7021C71.6302 55.8271 71.6797 55.9339 71.7734 56.0225C71.8672 56.1058 71.9948 56.1761 72.1562 56.2334C72.3229 56.2907 72.513 56.3376 72.7266 56.374C72.9453 56.4053 73.1797 56.4313 73.4297 56.4521C73.4505 56.5407 73.4609 56.611 73.4609 56.6631C73.4609 56.71 73.4505 56.762 73.4297 56.8193C72.5547 56.7881 71.6484 56.7725 70.7109 56.7725C69.7786 56.7725 68.8724 56.7881 67.9922 56.8193C67.9714 56.762 67.9609 56.71 67.9609 56.6631C67.9609 56.611 67.9714 56.5407 67.9922 56.4521L68.3672 56.4131C68.5026 56.3975 68.6536 56.3766 68.8203 56.3506C68.987 56.3193 69.1406 56.2777 69.2812 56.2256C69.4271 56.1735 69.5495 56.1084 69.6484 56.0303C69.7474 55.9521 69.7969 55.8558 69.7969 55.7412V55.7021C69.8229 54.749 69.8438 53.861 69.8594 53.0381C69.875 52.2152 69.8828 51.4495 69.8828 50.7412C69.8828 50.0381 69.875 49.2777 69.8594 48.46C69.8438 47.637 69.8229 46.749 69.7969 45.7959C69.0469 45.8376 68.3932 45.9391 67.8359 46.1006C67.2839 46.2568 66.8047 46.4548 66.3984 46.6943C65.9922 46.9287 65.6536 47.1995 65.3828 47.5068C65.112 47.8089 64.888 48.1292 64.7109 48.4678C64.5651 48.4105 64.474 48.3402 64.4375 48.2568L64.7891 47.5928L64.9531 47.2568C65.0208 47.1162 65.0885 46.973 65.1562 46.8271C65.224 46.6813 65.2865 46.5303 65.3438 46.374C65.4062 46.2126 65.4583 46.0433 65.5 45.8662C65.5417 45.6839 65.5729 45.4912 65.5938 45.2881ZM83.2578 45.1709C83.3359 45.1136 83.4193 45.0771 83.5078 45.0615L87.7812 55.7334C87.8333 55.8636 87.9193 55.9756 88.0391 56.0693C88.1589 56.1579 88.3073 56.2282 88.4844 56.2803C88.6667 56.3271 88.8229 56.3636 88.9531 56.3896C89.0885 56.4105 89.2526 56.4313 89.4453 56.4521C89.4661 56.5355 89.4766 56.6058 89.4766 56.6631C89.4766 56.7256 89.4661 56.7829 89.4453 56.835C88.3203 56.7933 87.4792 56.7725 86.9219 56.7725C86.3177 56.7725 85.4427 56.7933 84.2969 56.835C84.276 56.7725 84.2656 56.71 84.2656 56.6475C84.2656 56.5798 84.276 56.5146 84.2969 56.4521C85.349 56.3376 85.875 56.1396 85.875 55.8584C85.875 55.7699 85.8646 55.6787 85.8438 55.585L84.7109 52.6787C84.3672 52.6683 83.9036 52.6631 83.3203 52.6631C83.0443 52.6631 82.3281 52.6735 81.1719 52.6943L79.9766 55.7334V55.8271C79.9766 55.8792 79.9844 55.9287 80 55.9756C80.0208 56.0225 80.0521 56.0641 80.0938 56.1006C80.1406 56.137 80.1849 56.1683 80.2266 56.1943C80.2682 56.2204 80.3255 56.2464 80.3984 56.2725C80.4766 56.2933 80.5417 56.3115 80.5938 56.3271C80.651 56.3376 80.7266 56.3506 80.8203 56.3662C80.9193 56.3818 80.9948 56.3949 81.0469 56.4053C81.099 56.4105 81.1745 56.4183 81.2734 56.4287C81.3776 56.4391 81.4505 56.4469 81.4922 56.4521C81.513 56.5355 81.5234 56.6058 81.5234 56.6631C81.5234 56.6943 81.513 56.7516 81.4922 56.835C80.3255 56.7933 79.6693 56.7725 79.5234 56.7725C79.2422 56.7725 78.5182 56.7933 77.3516 56.835C77.3307 56.7725 77.3203 56.71 77.3203 56.6475C77.3203 56.5798 77.3307 56.5146 77.3516 56.4521C78.4349 56.3271 79.0521 56.0615 79.2031 55.6553L82.5625 47.1865L82.3906 46.7256C82.6875 46.5277 82.8932 46.3141 83.0078 46.085C83.1276 45.8558 83.2109 45.5511 83.2578 45.1709ZM83.3203 52.0537C83.7995 52.0537 84.1771 52.0485 84.4531 52.0381L82.9688 48.1943H82.9375L81.4453 52.0225C81.9349 52.0433 82.5599 52.0537 83.3203 52.0537ZM90.4062 45.2881C91.5729 45.3298 92.4792 45.3506 93.125 45.3506C93.7708 45.3506 94.6771 45.3298 95.8438 45.2881C95.8646 45.3714 95.875 45.4287 95.875 45.46C95.875 45.4964 95.8646 45.5615 95.8438 45.6553C95.6042 45.6761 95.4089 45.6995 95.2578 45.7256C95.112 45.7464 94.9297 45.7829 94.7109 45.835C94.4974 45.887 94.3333 45.9626 94.2188 46.0615C94.1042 46.1553 94.0443 46.2699 94.0391 46.4053C93.9714 48.1761 93.9375 49.8245 93.9375 51.3506C93.9375 52.137 93.9661 53.7855 94.0234 56.2959H96.4375C97.2031 56.2438 97.888 56.1318 98.4922 55.96C99.0964 55.7881 99.599 55.5693 100 55.3037C100.406 55.0329 100.74 54.7542 101 54.4678C101.266 54.1761 101.495 53.8506 101.688 53.4912C101.823 53.5433 101.911 53.6136 101.953 53.7021C101.74 54.098 101.573 54.4183 101.453 54.6631C101.339 54.9079 101.211 55.2308 101.07 55.6318C100.935 56.0277 100.846 56.4079 100.805 56.7725H94.0234C92.612 56.7725 91.401 56.7881 90.3906 56.8193C90.3698 56.7568 90.3594 56.7048 90.3594 56.6631C90.3594 56.6266 90.3698 56.5563 90.3906 56.4521C90.6302 56.4313 90.8229 56.4105 90.9688 56.3896C91.1198 56.3636 91.3021 56.3245 91.5156 56.2725C91.7344 56.2204 91.901 56.1475 92.0156 56.0537C92.1302 55.9548 92.1901 55.8376 92.1953 55.7021C92.2578 54.0719 92.2891 52.4287 92.2891 50.7725C92.2891 49.085 92.263 47.6292 92.2109 46.4053C92.2057 46.2699 92.1458 46.1553 92.0312 46.0615C91.9167 45.9626 91.75 45.887 91.5312 45.835C91.3177 45.7829 91.1354 45.7464 90.9844 45.7256C90.8385 45.6995 90.6458 45.6761 90.4062 45.6553C90.3854 45.5615 90.375 45.4964 90.375 45.46C90.375 45.4079 90.3854 45.3506 90.4062 45.2881ZM102.891 45.2881C104.057 45.3298 104.969 45.3506 105.625 45.3506C110.094 45.3245 112.568 45.3037 113.047 45.2881C113.115 45.8089 113.247 46.3037 113.445 46.7725C113.643 47.236 113.896 47.7308 114.203 48.2568C114.161 48.3454 114.07 48.4157 113.93 48.4678C113.742 48.1136 113.516 47.7985 113.25 47.5225C112.984 47.2464 112.648 46.986 112.242 46.7412C111.841 46.4964 111.339 46.2959 110.734 46.1396C110.135 45.9834 109.451 45.8792 108.68 45.8271H106.523C106.456 48.0303 106.422 49.6891 106.422 50.8037H108.648C108.799 50.8037 108.94 50.7933 109.07 50.7725C109.206 50.7464 109.331 50.7048 109.445 50.6475C109.56 50.585 109.661 50.5277 109.75 50.4756C109.844 50.4183 109.938 50.335 110.031 50.2256C110.125 50.111 110.203 50.0173 110.266 49.9443C110.328 49.8662 110.404 49.749 110.492 49.5928C110.581 49.4365 110.648 49.3141 110.695 49.2256C110.742 49.137 110.812 48.999 110.906 48.8115C111.005 48.624 111.081 48.4834 111.133 48.3896C111.294 48.4521 111.393 48.5199 111.43 48.5928C111.211 48.9782 111.026 49.4053 110.875 49.874C110.724 50.3428 110.648 50.7334 110.648 51.0459C110.648 51.7855 110.909 52.6006 111.43 53.4912C111.388 53.5745 111.289 53.6449 111.133 53.7021C111.076 53.598 110.995 53.4495 110.891 53.2568C110.792 53.0589 110.714 52.9079 110.656 52.8037C110.599 52.6995 110.521 52.5667 110.422 52.4053C110.323 52.2438 110.234 52.1188 110.156 52.0303C110.083 51.9417 109.987 51.8428 109.867 51.7334C109.753 51.624 109.638 51.5433 109.523 51.4912C109.409 51.4339 109.276 51.387 109.125 51.3506C108.979 51.3089 108.82 51.2881 108.648 51.2881H106.422C106.422 52.1162 106.451 53.7855 106.508 56.2959H109C109.771 56.2438 110.456 56.1396 111.055 55.9834C111.659 55.8271 112.161 55.6266 112.562 55.3818C112.969 55.137 113.305 54.8766 113.57 54.6006C113.836 54.3245 114.062 54.0094 114.25 53.6553C114.391 53.7074 114.482 53.7751 114.523 53.8584C114.497 53.9105 114.43 54.0355 114.32 54.2334C114.211 54.4313 114.138 54.5667 114.102 54.6396C114.065 54.7074 114.003 54.8298 113.914 55.0068C113.831 55.1787 113.768 55.3193 113.727 55.4287C113.685 55.5329 113.635 55.6657 113.578 55.8271C113.526 55.9886 113.482 56.1475 113.445 56.3037C113.414 56.4548 113.388 56.611 113.367 56.7725H106.508C105.096 56.7725 103.885 56.7881 102.875 56.8193C102.854 56.7568 102.844 56.7048 102.844 56.6631C102.844 56.6266 102.854 56.5563 102.875 56.4521C103.115 56.4313 103.307 56.4105 103.453 56.3896C103.604 56.3636 103.786 56.3245 104 56.2725C104.219 56.2204 104.385 56.1475 104.5 56.0537C104.615 55.9548 104.674 55.8376 104.68 55.7021C104.742 54.0719 104.773 52.4287 104.773 50.7725C104.773 49.085 104.747 47.6292 104.695 46.4053C104.69 46.2699 104.63 46.1553 104.516 46.0615C104.401 45.9626 104.234 45.887 104.016 45.835C103.802 45.7829 103.62 45.7464 103.469 45.7256C103.323 45.6995 103.13 45.6761 102.891 45.6553C102.87 45.5615 102.859 45.4964 102.859 45.46C102.859 45.4287 102.87 45.3714 102.891 45.2881ZM115.453 45.2881C116.307 45.3298 117.385 45.3506 118.688 45.3506C122.37 49.9652 124.349 52.4235 124.625 52.7256C124.901 53.0225 125.039 53.1709 125.039 53.1709H125.102C125.122 52.1709 125.133 51.3662 125.133 50.7568C125.133 49.5537 125.107 48.1396 125.055 46.5146C125.044 46.0459 124.466 45.7594 123.32 45.6553C123.299 45.5407 123.289 45.4704 123.289 45.4443C123.289 45.4027 123.299 45.3506 123.32 45.2881C124.159 45.3193 124.901 45.335 125.547 45.335C125.964 45.335 126.661 45.3193 127.641 45.2881C127.661 45.3506 127.672 45.4027 127.672 45.4443C127.672 45.5277 127.661 45.598 127.641 45.6553C126.5 45.7594 125.924 46.0459 125.914 46.5146C125.852 48.1449 125.82 49.7516 125.82 51.335C125.82 53.7568 125.846 55.5798 125.898 56.8037L125.758 56.8193L117.992 47.2646H117.914C117.883 48.6136 117.867 49.9756 117.867 51.3506C117.867 52.5589 117.893 53.9704 117.945 55.585C117.956 56.0589 118.531 56.348 119.672 56.4521C119.698 56.5407 119.711 56.611 119.711 56.6631C119.711 56.7152 119.698 56.7673 119.672 56.8193C118.844 56.7881 118.104 56.7725 117.453 56.7725C117.036 56.7725 116.339 56.7881 115.359 56.8193C115.333 56.7673 115.32 56.7152 115.32 56.6631C115.32 56.5745 115.333 56.5042 115.359 56.4521C116.51 56.3428 117.086 56.0537 117.086 55.585C117.148 53.96 117.18 52.3558 117.18 50.7725C117.18 49.0537 117.159 47.5615 117.117 46.2959C116.68 45.9157 116.125 45.7021 115.453 45.6553C115.422 45.5876 115.406 45.5277 115.406 45.4756C115.406 45.3975 115.422 45.335 115.453 45.2881ZM129.391 45.2881C129.958 45.3089 130.667 45.3245 131.516 45.335C132.365 45.3454 133.362 45.3506 134.508 45.3506C135.654 45.3506 136.651 45.3454 137.5 45.335C138.354 45.3245 139.068 45.3089 139.641 45.2881C139.672 45.512 139.711 45.7282 139.758 45.9365C139.805 46.1396 139.883 46.3662 139.992 46.6162L140.227 47.1475L140.797 48.2568C140.76 48.3402 140.669 48.4105 140.523 48.4678C140.346 48.1396 140.13 47.8271 139.875 47.5303C139.62 47.2334 139.294 46.9652 138.898 46.7256C138.508 46.486 138.029 46.2855 137.461 46.124C136.898 45.9626 136.219 45.8532 135.422 45.7959C135.396 46.4469 135.375 47.1839 135.359 48.0068C135.349 48.8245 135.344 49.736 135.344 50.7412C135.344 51.7516 135.349 52.6683 135.359 53.4912C135.375 54.3141 135.396 55.0511 135.422 55.7021C135.427 55.8271 135.477 55.9339 135.57 56.0225C135.664 56.1058 135.792 56.1761 135.953 56.2334C136.12 56.2907 136.31 56.3376 136.523 56.374C136.742 56.4053 136.977 56.4313 137.227 56.4521C137.247 56.5407 137.258 56.611 137.258 56.6631C137.258 56.71 137.247 56.762 137.227 56.8193C136.352 56.7881 135.445 56.7725 134.508 56.7725C133.576 56.7725 132.669 56.7881 131.789 56.8193C131.768 56.762 131.758 56.71 131.758 56.6631C131.758 56.611 131.768 56.5407 131.789 56.4521L132.164 56.4131C132.299 56.3975 132.451 56.3766 132.617 56.3506C132.784 56.3193 132.938 56.2777 133.078 56.2256C133.224 56.1735 133.346 56.1084 133.445 56.0303C133.544 55.9521 133.594 55.8558 133.594 55.7412V55.7021C133.62 54.749 133.641 53.861 133.656 53.0381C133.672 52.2152 133.68 51.4495 133.68 50.7412C133.68 50.0381 133.672 49.2777 133.656 48.46C133.641 47.637 133.62 46.749 133.594 45.7959C132.844 45.8376 132.19 45.9391 131.633 46.1006C131.081 46.2568 130.602 46.4548 130.195 46.6943C129.789 46.9287 129.451 47.1995 129.18 47.5068C128.909 47.8089 128.685 48.1292 128.508 48.4678C128.362 48.4105 128.271 48.3402 128.234 48.2568L128.586 47.5928L128.75 47.2568C128.818 47.1162 128.885 46.973 128.953 46.8271C129.021 46.6813 129.083 46.5303 129.141 46.374C129.203 46.2126 129.255 46.0433 129.297 45.8662C129.339 45.6839 129.37 45.4912 129.391 45.2881Z" fill="white"/>
<path d="M29.5106 9.32461L30.546 40.7725L44.5247 40.7725L45.0424 9.78708L45.5602 8.39968L46.0779 7.47474L47.1134 6.5498L50.7375 5.1624L59.8602 3.77499L60.0566 2.38759L59.8602 1.00018L15.0141 1.00018L14.4964 1.46265V2.38759V3.31252L15.0141 3.77499L23.8155 5.1624L27.9574 7.01227L28.9928 7.93721L29.5106 9.32461Z" fill="white" stroke="white"/>
<path d="M94.7447 9.32461L95.7801 40.7725L109.759 40.7725L110.277 9.78708L110.794 8.39968L111.312 7.47474L112.348 6.5498L115.972 5.1624L125.094 3.77499L125.291 2.38759L125.094 1.00018L80.2482 1.00018L79.7305 1.46265V2.38759V3.31252L80.2482 3.77499L89.0496 5.1624L93.1915 7.01227L94.227 7.93721L94.7447 9.32461Z" fill="white" stroke="white"/>
</svg>
